<svg width="49" height="31" viewBox="0 0 49 31" fill="none" xmlns="http://www.w3.org/2000/svg">
<path d="M10 13.5C8.89543 13.5 8 14.3954 8 15.5C8 16.6046 8.89543 17.5 10 17.5V13.5ZM40.4142 16.9142C41.1953 16.1332 41.1953 14.8668 40.4142 14.0858L27.6863 1.35786C26.9052 0.576816 25.6389 0.576816 24.8579 1.35786C24.0768 2.13891 24.0768 3.40524 24.8579 4.18629L36.1716 15.5L24.8579 26.8137C24.0768 27.5948 24.0768 28.8611 24.8579 29.6421C25.6389 30.4232 26.9052 30.4232 27.6863 29.6421L40.4142 16.9142ZM10 15.5V17.5H39V15.5V13.5H10V15.5Z" fill="#AB4F2E"/>
</svg>
