<svg width="58" height="57" viewBox="0 0 58 57" fill="none" xmlns="http://www.w3.org/2000/svg">
<path d="M22.1149 56.3683V37.3461H16.2391V28.6049H22.1149V24.8386C22.1149 15.101 26.5039 10.5886 36.0276 10.5886C36.98 10.5886 38.2957 10.6887 39.5141 10.8341C40.4267 10.9284 41.332 11.0836 42.224 11.2989V19.2249C41.7083 19.1766 41.191 19.148 40.6731 19.1391C40.093 19.1239 39.5126 19.1168 38.9322 19.1176C37.2531 19.1176 35.9421 19.3464 34.9541 19.8542C34.2899 20.1886 33.7316 20.702 33.3415 21.3369C32.7287 22.338 32.4533 23.7087 32.4533 25.5132V28.6049H41.7609L40.8441 33.6179L40.1625 37.3461H32.4533V57C46.5655 55.2885 57.5 43.2291 57.5 28.6049C57.5 12.8078 44.7391 0 29 0C13.2609 0 0.5 12.8078 0.5 28.6049C0.5 42.0206 9.70075 53.2766 22.1149 56.3683Z" fill="#FFF5E8"/>
</svg>
