<svg width="54" height="55" viewBox="0 0 54 55" fill="none" xmlns="http://www.w3.org/2000/svg">
<path d="M15.8178 0.689037C12.9449 0.824487 10.9832 1.28304 9.26798 1.95668C7.49317 2.64856 5.98859 3.57668 4.49166 5.079C2.99495 6.58132 2.07289 8.08679 1.38619 9.86474C0.721537 11.5833 0.271085 13.5469 0.144184 16.4212C0.0172837 19.2956 -0.0108415 20.2197 0.00333359 27.5519C0.0172837 34.8838 0.0496838 35.8029 0.188959 38.6833C0.32621 41.5554 0.782962 43.5168 1.45684 45.2324C2.14984 47.0074 3.07685 48.5113 4.57986 50.0087C6.08264 51.506 7.587 52.4258 9.369 53.1137C11.0862 53.7774 13.0502 54.2299 15.9242 54.3557C18.7981 54.4817 19.7231 54.5109 27.0532 54.4967C34.3833 54.4828 35.3062 54.4502 38.1858 54.3136C41.0658 54.177 43.0166 53.7169 44.7329 53.0462C46.5079 52.3518 48.0129 51.4262 49.5092 49.9229C51.0055 48.4195 51.9268 46.9129 52.6131 45.1341C53.2784 43.4169 53.7304 41.4531 53.8551 38.5812C53.9811 35.6992 54.0108 34.7791 53.9968 27.4482C53.9827 20.1171 53.9496 19.1979 53.813 16.3186C53.6764 13.4393 53.219 11.4841 52.5456 9.76731C51.8517 7.99229 50.9256 6.48952 49.4235 4.99102C47.9211 3.49253 46.4132 2.57183 44.6352 1.88716C42.9167 1.22229 40.954 0.769362 38.08 0.645162C35.2061 0.520963 34.2811 0.488788 26.9483 0.503188C19.6156 0.517138 18.6975 0.548638 15.8178 0.689037ZM16.1332 49.4984C13.5007 49.3838 12.0713 48.9465 11.1186 48.5804C9.85726 48.0944 8.9586 47.5069 8.00932 46.5666C7.05982 45.6266 6.47684 44.7248 5.98431 43.4661C5.61441 42.5135 5.16891 41.0856 5.04583 38.4532C4.91196 35.608 4.88383 34.7537 4.86808 27.5452C4.85233 20.3369 4.88001 19.4835 5.00466 16.6372C5.11716 14.007 5.55726 12.576 5.92266 11.6238C6.40866 10.3609 6.99412 9.46379 7.93642 8.51519C8.87873 7.56637 9.77783 6.98204 11.0376 6.48952C11.9894 6.11805 13.417 5.67637 16.0484 5.55105C18.8958 5.41605 19.749 5.38905 26.9564 5.3733C34.1639 5.35755 35.0194 5.38455 37.8679 5.5101C40.4981 5.6244 41.9298 6.06022 42.8809 6.4281C44.1427 6.91409 45.0409 7.49774 45.9895 8.44184C46.9383 9.38549 47.5231 10.2814 48.0156 11.5439C48.3876 12.4927 48.8295 13.9199 48.9537 16.5531C49.0891 19.4004 49.1199 20.2543 49.1328 27.461C49.1458 34.6678 49.1204 35.5237 48.9955 38.369C48.8808 41.0015 48.4443 42.4314 48.0775 43.3851C47.5915 44.646 47.0058 45.5451 46.0629 46.4933C45.1201 47.4417 44.2221 48.0258 42.9617 48.5183C42.0113 48.8893 40.5818 49.3321 37.9527 49.4574C35.1051 49.5913 34.2519 49.6194 27.0417 49.6352C19.8316 49.6509 18.9806 49.6217 16.1332 49.4984ZM38.1444 13.0694C38.1455 13.7103 38.3366 14.3364 38.6935 14.8687C39.0505 15.4009 39.5573 15.8153 40.1498 16.0595C40.7423 16.3037 41.394 16.3667 42.0223 16.2406C42.6506 16.1144 43.2274 15.8047 43.6797 15.3507C44.132 14.8967 44.4396 14.3188 44.5634 13.69C44.6872 13.0612 44.6218 12.4098 44.3753 11.8182C44.1289 11.2266 43.7126 10.7214 43.179 10.3664C42.6454 10.0114 42.0185 9.82268 41.3777 9.82401C40.5186 9.8258 39.6954 10.1687 39.0891 10.7773C38.4828 11.3859 38.143 12.2103 38.1444 13.0694ZM13.1366 27.527C13.1517 35.1841 19.3705 41.3772 27.026 41.3628C34.6819 41.3482 40.8793 35.1301 40.8649 27.473C40.8503 19.8158 34.6301 13.6209 26.9733 13.636C19.3165 13.651 13.1222 19.8707 13.1366 27.527ZM18 27.5173C17.9965 25.7373 18.5209 23.9962 19.5069 22.5142C20.4929 21.0322 21.8963 19.8759 23.5394 19.1915C25.1826 18.507 26.9919 18.3252 28.7384 18.669C30.4849 19.0128 32.0902 19.8668 33.3514 21.1229C34.6126 22.3791 35.4729 23.981 35.8237 25.7261C36.1744 27.4713 35.9998 29.2812 35.3219 30.9271C34.644 32.573 33.4932 33.9808 32.0152 34.9727C30.5371 35.9646 28.7981 36.4959 27.0181 36.4995C25.8361 36.502 24.6653 36.2716 23.5724 35.8215C22.4795 35.3714 21.4859 34.7105 20.6485 33.8764C19.8111 33.0423 19.1461 32.0514 18.6917 30.9603C18.2373 29.8692 18.0023 28.6992 18 27.5173Z" fill="#AB4F2E"/>
</svg>
