<svg width="54" height="55" viewBox="0 0 54 55" fill="none" xmlns="http://www.w3.org/2000/svg">
<path d="M0 4.36775C0 2.23138 1.77525 0.5 3.96562 0.5H50.0344C52.2247 0.5 54 2.23138 54 4.36775V50.6323C54 52.7686 52.2247 54.5 50.0344 54.5H3.96562C1.77525 54.5 0 52.7686 0 50.6323V4.36775ZM16.6826 45.7048V21.3204H8.57925V45.7048H16.6826ZM12.6326 17.9893C15.4575 17.9893 17.2159 16.1195 17.2159 13.7773C17.1652 11.3844 15.4609 9.56525 12.6866 9.56525C9.91238 9.56525 8.1 11.3878 8.1 13.7773C8.1 16.1195 9.85837 17.9893 12.5786 17.9893H12.6326ZM29.1971 45.7048V32.0866C29.1971 31.3576 29.2511 30.6286 29.4671 30.1089C30.051 28.6542 31.3841 27.1456 33.6251 27.1456C36.558 27.1456 37.7291 29.3799 37.7291 32.6604V45.7048H45.8325V31.7188C45.8325 24.2262 41.8365 20.7432 36.504 20.7432C32.2043 20.7432 30.2771 23.1057 29.1971 24.7696V24.854H29.1431L29.1971 24.7696V21.3204H21.0971C21.1984 23.6086 21.0971 45.7048 21.0971 45.7048H29.1971Z" fill="#FFF5E8"/>
</svg>
