<svg width="48" height="55" viewBox="0 0 48 55" fill="none" xmlns="http://www.w3.org/2000/svg">
<path d="M25.2096 0.544999C28.2253 0.5 31.218 0.5225 34.2107 0.5C34.3948 3.94246 35.661 7.45241 38.2393 9.88238C40.8176 12.3799 44.4548 13.5273 48 13.9098V22.9772C44.685 22.8647 41.347 22.1897 38.3314 20.7947C37.0192 20.2098 35.7991 19.4673 34.602 18.7023C34.579 25.2722 34.625 31.8421 34.556 38.3895C34.3718 41.5395 33.3129 44.667 31.4482 47.2544C28.4325 51.5744 23.2068 54.3868 17.843 54.4768C14.5511 54.6568 11.2591 53.7793 8.45063 52.1594C3.80047 49.4819 0.531549 44.577 0.0481169 39.312C0.00207575 38.187 -0.0209448 37.062 0.0250964 35.9596C0.439467 31.6846 2.6034 27.5897 5.96441 24.7997C9.78583 21.5597 15.1266 20.0073 20.1221 20.9297C20.1681 24.2597 20.03 27.5897 20.03 30.9196C17.7509 30.1996 15.0806 30.4021 13.0778 31.7521C11.6275 32.6746 10.5225 34.0921 9.94697 35.6896C9.46354 36.837 9.60166 38.097 9.62468 39.312C10.1772 43.002 13.8144 46.1069 17.6819 45.7694C20.2602 45.7469 22.7234 44.2845 24.0586 42.147C24.496 41.4045 24.9794 40.6395 25.0024 39.762C25.2326 35.7346 25.1406 31.7296 25.1636 27.7022C25.1866 18.6348 25.1406 9.58989 25.2096 0.544999Z" fill="#AB4F2E"/>
</svg>
