<svg width="58" height="41" viewBox="0 0 58 41" fill="none" xmlns="http://www.w3.org/2000/svg">
<path d="M56.3078 6.40337C55.9857 5.16507 55.3507 4.03487 54.4662 3.12595C53.5817 2.21703 52.4788 1.5613 51.268 1.22442C46.8244 2.80627e-07 29 0 29 0C29 0 11.1756 2.80627e-07 6.72962 1.22442C5.51934 1.56189 4.41707 2.21786 3.53306 3.12672C2.64905 4.03558 2.01428 5.16547 1.69225 6.40337C0.5 10.9713 0.5 20.5 0.5 20.5C0.5 20.5 0.5 30.0287 1.69225 34.5966C2.01427 35.8349 2.64932 36.9651 3.5338 37.8741C4.41829 38.783 5.52117 39.4387 6.732 39.7756C11.1756 41 29 41 29 41C29 41 46.8244 41 51.2704 39.7756C52.4813 39.4389 53.5843 38.7833 54.4688 37.8743C55.3534 36.9654 55.9883 35.835 56.3101 34.5966C57.5 30.0287 57.5 20.5 57.5 20.5C57.5 20.5 57.5 10.9713 56.3078 6.40337ZM23.1694 29.151V11.849L38.0677 20.5L23.1694 29.151Z" fill="#FFF5E8"/>
</svg>
